<svg xmlns="http://www.w3.org/2000/svg" width="18" height="18" viewBox="0 0 12 12"><path fill="#4285F4" d="M11.76 6.136c0-.425-.038-.834-.11-1.227H6V7.23h3.23a2.76 2.76 0 0 1-1.198 1.81v1.506H9.97c1.134-1.044 1.789-2.582 1.789-4.41z"/><path fill="#34A853" d="M6 12c1.62 0 2.978-.537 3.97-1.454L8.033 9.041c-.537.36-1.225.573-2.032.573-1.563 0-2.885-1.056-3.357-2.474H.638v1.555A5.998 5.998 0 0 0 6 12z"/><path fill="#FBBC05" d="M2.643 7.14A3.607 3.607 0 0 1 2.455 6c0-.395.068-.78.188-1.14V3.305H.638a5.998 5.998 0 0 0 0 5.39L2.643 7.14z"/><path fill="#EA4335" d="M6 2.386c.88 0 1.672.303 2.294.898l1.72-1.721C8.976.595 7.618 0 6 0A5.998 5.998 0 0 0 .638 3.305L2.643 4.86C3.115 3.442 4.437 2.386 6 2.386z"/></svg>